<svg xmlns="http://www.w3.org/2000/svg" xmlns:xlink="http://www.w3.org/1999/xlink" viewBox="0 0 441 445.5"><defs><style>.cls-1{fill:#1a1a1a;}.cls-2{fill:url(#Безымянный_градиент_95);}.cls-3{fill:url(#Безымянный_градиент_95-2);}</style><linearGradient id="Безымянный_градиент_95" x1="251.94" y1="282.75" x2="136.09" y2="82.09" gradientUnits="userSpaceOnUse"><stop offset="0" stop-color="#ff4fd1"/><stop offset="0.42" stop-color="#bd9fd1" stop-opacity="0.82"/><stop offset="0.82" stop-color="#83e4d1" stop-opacity="0.66"/><stop offset="1" stop-color="#6dffd1" stop-opacity="0.6"/></linearGradient><linearGradient id="Безымянный_градиент_95-2" x1="310.44" y1="332.27" x2="202.88" y2="145.97" xlink:href="#Безымянный_градиент_95"/></defs><title>Ресурс 21</title><g id="Слой_2" data-name="Слой 2"><g id="Слой_2-2" data-name="Слой 2"><rect class="cls-1" width="441" height="445.5" rx="128.75" ry="128.75"/><path class="cls-2" d="M288,220.5a71.77,71.77,0,0,1-4.11,24,70.87,70.87,0,0,1-5.52,12,72,72,0,0,1-4.37,6.66l0,0-.06.08a2.63,2.63,0,0,1-.21.29c-.06.08-.12.15-.17.23a72,72,0,0,1-8,9c-.62.59-1.24,1.16-1.88,1.71a71.76,71.76,0,0,1-7.85,6,2.41,2.41,0,0,1-3.76-2v-58a36,36,0,0,0-31.53-35.72,34.27,34.27,0,0,0-3.54-.27h-1.86a36,36,0,0,0-35.07,36v58a2.41,2.41,0,0,1-3.76,2,72.86,72.86,0,0,1-22.61-24,70.87,70.87,0,0,1-5.52-12,71.77,71.77,0,0,1-4.11-24V78.91a2.41,2.41,0,0,1,2.41-2.41h31.19A2.41,2.41,0,0,1,180,78.91v75.19a2.41,2.41,0,0,0,3.52,2.13A72.22,72.22,0,0,1,234,150.77h0a71.5,71.5,0,0,1,18,7.36,72.52,72.52,0,0,1,26.37,26.37,71.42,71.42,0,0,1,7.35,18c.2.76.39,1.53.56,2.31A72,72,0,0,1,288,220.5Z"/><path class="cls-3" d="M357.59,76.5A2.41,2.41,0,0,1,360,78.91V220.5a144,144,0,0,1-4.47,35.72c0,.1-.05.19-.07.28s0,.1,0,.15c-.24.93-.49,1.86-.75,2.78,0,.16-.09.32-.14.48q-.27,1-.57,2l-.06.21c-.11.36-.22.71-.32,1.07,0,.1-.07.21-.1.31-.21.67-.43,1.35-.65,2,0,0,0,0,0,0-.19.58-.38,1.16-.59,1.74-.05.15-.1.31-.16.46-.15.45-.31.89-.47,1.34l-.24.68-.08.21c-.14.39-.29.78-.44,1.17a.56.56,0,0,1,0,.12q-.21.57-.42,1.11c-.2.52-.4,1-.61,1.55-.08.21-.16.41-.25.61-.27.68-.55,1.35-.84,2-.14.34-.28.68-.43,1s-.15.37-.23.55c-.21.48-.43,1-.65,1.45s-.29.66-.45,1c-1.11,2.44-2.3,4.84-3.55,7.2-.44.84-.89,1.68-1.35,2.51h0c-.42.76-.85,1.52-1.28,2.27s-.86,1.46-1.31,2.19c-.08.15-.17.31-.27.46l-.55.89a2.9,2.9,0,0,1-.2.33c-.39.65-.8,1.29-1.22,1.93-.63,1-1.28,2-1.95,3l-.29.43c-.17.25-.34.51-.53.76-.38.56-.77,1.12-1.17,1.67-.2.29-.42.59-.63.88-.48.66-1,1.32-1.46,2-.12.15-.23.31-.35.47-.62.82-1.24,1.62-1.88,2.42l0,0c-.29.36-.56.71-.86,1.06s-.73.91-1.11,1.36-.62.76-.95,1.14c-.64.77-1.3,1.53-2,2.29-.21.25-.43.49-.66.73h0c-.42.48-.84.94-1.27,1.41l0,0c-.11.13-.23.25-.35.38l-.22.24-.3.32c-.56.6-1.12,1.18-1.69,1.77q-3.94,4.11-8.24,7.87-2.52,2.23-5.16,4.35c-.52.41-1,.83-1.57,1.23-.85.68-1.71,1.33-2.58,2-.46.36-.93.7-1.4,1l-1.68,1.19c-.33.24-.65.47-1,.69-.65.46-1.31.9-2,1.34-.31.21-.62.42-.94.62l-.17.11c-.49.33-1,.65-1.48,1l-.35.23-.65.41-.22.14-.26.16c-.53.34-1.08.67-1.62,1L290,344l-.07,0-.23.14c-.57.35-1.14.69-1.72,1q-1.14.66-2.28,1.29a143,143,0,0,1-29.41,12.26c-1.43.42-2.86.81-4.31,1.18a143.82,143.82,0,0,1-31.48,4.47c-1.2,0-2.39.06-3.59.06h-1.86a143.23,143.23,0,0,1-68.79-18q-1.14-.63-2.28-1.29a144.06,144.06,0,0,1-23.23-16.73,138.87,138.87,0,0,1-12.11-12l-.66-.74A144.06,144.06,0,0,1,91.27,292.5a142.95,142.95,0,0,1-14.73-36A144.18,144.18,0,0,1,72,222.93a2.41,2.41,0,0,1,2.41-2.43h31.18a2.42,2.42,0,0,1,2.42,2.36h0c0,.78,0,1.57.07,2.35s.07,1.55.13,2.33.1,1.56.17,2.33.12,1.34.19,2c0,.22,0,.44.07.66.13,1.14.27,2.28.44,3.41q.08.61.18,1.23.25,1.68.57,3.33s0,.08,0,.12,0,.14,0,.21c.06.29.11.57.17.85.11.53.21,1.06.33,1.59.07.33.14.67.22,1,.16.71.32,1.41.5,2.11.06.26.12.51.19.76.17.7.36,1.4.55,2.09.11.42.23.84.35,1.26.31,1,.62,2.1,1,3.13l.39,1.21c.19.56.38,1.12.58,1.67.3.84.6,1.67.92,2.5s.64,1.65,1,2.47c.24.61.49,1.19.75,1.79h0l.07.16c0,.12.1.25.16.37s.17.41.27.61.08.2.13.3.18.4.28.6c.2.47.42.94.65,1.4a.91.91,0,0,0,.07.14l.08.17s0,.07,0,.1c.15.33.31.67.47,1a.25.25,0,0,1,0,.07l.09.18.06.13c.34.7.69,1.39,1.06,2.08.19.37.39.74.59,1.1s.39.73.59,1.09l.09.15c.12.24.26.48.4.72s.33.58.5.87c.45.79.92,1.58,1.41,2.36a.18.18,0,0,0,0,.08c.35.58.71,1.16,1.08,1.73.21.34.43.68.65,1l0,.07.61.92.61.9c.39.58.8,1.15,1.21,1.72.21.31.43.62.66.92q.66.92,1.35,1.8c.2.28.42.56.63.83.07.1.15.19.22.28.37.47.74.94,1.12,1.4.54.67,1.1,1.34,1.67,2s1.08,1.25,1.63,1.87a106.61,106.61,0,0,0,8.7,8.7c.61.55,1.24,1.09,1.86,1.62.4.35.81.68,1.22,1l.92.75c.59.48,1.19,1,1.79,1.42l.49.38.5.38.11.08.13.1.28.21,1,.72,1.41,1,.11.08.92.63.12.08q.61.44,1.23.84l.44.29c.6.4,1.21.79,1.82,1.17l.27.18,2.15,1.31c.75.45,1.5.88,2.26,1.31h0l2,1.12.36.19.11.06c.59.32,1.2.63,1.8.93l.21.1.35.18c.7.35,1.4.69,2.11,1l.16.07c.53.25,1.06.5,1.6.73l1.27.56.18.08c.61.27,1.22.52,1.84.77l1.76.7.69.27q1.17.45,2.37.87l.49.17.13,0c.78.28,1.58.54,2.37.8l.19.06,1.52.47,2.13.62q2.14.6,4.32,1.11l1.09.25c.36.09.72.17,1.09.24.73.16,1.47.31,2.2.45s1.48.28,2.22.4l1.11.18,1.12.18,2.25.31c1.46.19,2.93.34,4.4.47.78.07,1.55.13,2.33.17l.94.05q.95.06,1.89.09c.62,0,1.23,0,1.85.06.79,0,1.57,0,2.36,0s1.57,0,2.36,0c.62,0,1.23,0,1.85-.06s1.26,0,1.89-.09l.94-.05c.78,0,1.55-.1,2.33-.17,1.47-.13,2.94-.28,4.4-.47l2.25-.31,1.12-.18,1.11-.18c.74-.12,1.48-.26,2.22-.4s1.47-.29,2.2-.45c.37-.07.73-.15,1.09-.24l1.09-.25q2.18-.51,4.32-1.11l2.13-.62,1.52-.47.19-.06c.79-.26,1.59-.52,2.37-.8l.13,0,.49-.17.18-.07c1.47-.52,2.92-1.06,4.35-1.65l1.71-.71,1-.44.67-.3c.45-.19.9-.39,1.34-.61,1-.44,2-.91,2.93-1.4l.27-.13c.44-.22.88-.44,1.31-.68s.82-.42,1.23-.65c.59-.31,1.17-.63,1.75-1,.41-.22.82-.45,1.22-.7s.54-.3.81-.47c.71-.4,1.4-.83,2.09-1.26s1.24-.77,1.85-1.17c.41-.26.81-.53,1.21-.8.55-.36,1.1-.74,1.64-1.12.81-.56,1.62-1.13,2.41-1.72s1.6-1.2,2.39-1.81l1.51-1.21c.7-.56,1.4-1.13,2.08-1.72s1.36-1.17,2-1.77a106.52,106.52,0,0,0,8.5-8.5c.63-.71,1.26-1.42,1.87-2.15.42-.49.83-1,1.23-1.48l.42-.52.11-.13c.16-.2.32-.39.47-.59.48-.59.94-1.19,1.4-1.79a1.15,1.15,0,0,1,.1-.13,2.62,2.62,0,0,1,.21-.29l.17-.23c.06-.08.12-.15.17-.23l.14-.19,0,0,.23-.3s0,0,0,0,0,0,0,0c.17-.23.34-.46.5-.7l.15-.2c.2-.27.4-.55.59-.83s.37-.51.54-.77l.34-.5.3-.44c.12-.16.22-.31.32-.47l.12-.18q1.46-2.18,2.79-4.43.42-.68.81-1.38a2.4,2.4,0,0,0,.18-.3.25.25,0,0,0,0-.07.55.55,0,0,0,.08-.15s0,0,0,0l.12-.2a1.18,1.18,0,0,0,.11-.19l.44-.78a106.65,106.65,0,0,0,7.34-16.29c.21-.6.42-1.2.62-1.81s.4-1.2.58-1.8.32-1,.47-1.53c.07-.23.14-.45.2-.68.14-.48.27-1,.41-1.45.19-.69.38-1.39.55-2.09.07-.25.13-.5.19-.76.18-.7.34-1.4.5-2.11.1-.43.19-.88.28-1.3l.25-1.22c.06-.33.13-.66.19-1,.23-1.19.43-2.39.62-3.59q.11-.61.18-1.23c.17-1.13.31-2.27.44-3.41a.13.13,0,0,1,0-.06c.09-.86.17-1.73.25-2.6,0-.38.06-.77.08-1.15.05-.56.09-1.11.12-1.67,0-.11,0-.22,0-.33,0-.5.06-1,.08-1.51.07-1.56.1-3.13.1-4.71V78.91a2.41,2.41,0,0,1,2.41-2.41Z"/></g></g></svg>