<svg width="28" height="25" viewBox="0 0 28 25" fill="none" xmlns="http://www.w3.org/2000/svg">
<path d="M1.70509 14.231L1.79488 14.0963L7.63118 4.98272C7.72097 4.84804 7.90055 4.84804 7.99034 5.02762C8.97802 7.22746 9.78613 9.92114 9.42697 11.6271C9.24739 12.3454 8.79845 13.2882 8.25971 14.1412C8.21482 14.2759 8.12503 14.4106 8.03524 14.5004C7.99034 14.5453 7.94545 14.5902 7.85566 14.5902H1.83977C1.70509 14.5453 1.6153 14.3657 1.70509 14.231Z" fill="#E3E9EC"/>
<path d="M27.7 15.9376V17.3742C27.7 17.464 27.6551 17.5089 27.5653 17.5538C27.1164 17.7334 25.5451 18.4517 24.9165 19.3496C23.2554 21.6392 21.9984 24.9165 19.2149 24.9165H7.49741C3.3671 24.9165 0 21.5494 0 17.3742V17.2395C0 17.1498 0.08979 17.06 0.179579 17.06H6.77909C6.91378 17.06 7.00357 17.1947 7.00357 17.2844C6.95867 17.6885 7.04846 18.1374 7.22804 18.5415C7.63209 19.3496 8.44019 19.7985 9.29319 19.7985H12.5256V17.2844H9.33809C9.15851 17.2844 9.06872 17.1049 9.15851 16.9702C9.20341 16.9253 9.2483 16.8804 9.29319 16.7906C9.60746 16.3417 10.0115 15.7131 10.4605 14.9499C10.7747 14.4561 11.0441 13.8724 11.2686 13.3337C11.3135 13.2439 11.3583 13.1541 11.4032 13.0195C11.4481 12.8399 11.5379 12.6603 11.5828 12.5256C11.6277 12.3909 11.6726 12.2562 11.7175 12.1216C11.8073 11.6726 11.8522 11.1788 11.8522 10.64C11.8522 10.4605 11.8522 10.236 11.8073 10.0115C11.8073 9.78703 11.7624 9.56256 11.7624 9.33808C11.7624 9.1585 11.7175 8.93404 11.6726 8.75446C11.6277 8.4402 11.5828 8.17083 11.493 7.85656L11.4481 7.76677C11.4032 7.58719 11.3583 7.36272 11.2686 7.18315C11.089 6.55462 10.8645 5.92609 10.64 5.38736C10.5502 5.16289 10.4605 4.93841 10.3707 4.71394C10.236 4.39968 10.1013 4.08541 9.96661 3.81605C9.92172 3.68136 9.83193 3.59157 9.78703 3.45689C9.74214 3.3222 9.65235 3.18752 9.60746 3.05283C9.56256 2.96304 9.51767 2.87326 9.47277 2.78347L9.06872 2.06515C9.02382 1.97536 9.11362 1.84068 9.2034 1.88557L11.6726 2.55899L11.9869 2.64878L12.346 2.73857L12.4807 2.78347V1.30194C12.4807 0.583628 13.0643 0 13.7378 0C14.0969 0 14.4112 0.134678 14.6357 0.359152C14.8601 0.583625 14.9948 0.897888 14.9948 1.25704V3.41199L15.2642 3.50178C15.2642 3.50178 15.3091 3.50178 15.3091 3.54668C15.354 3.59157 15.4438 3.68136 15.5784 3.77115C15.6682 3.86094 15.758 3.95073 15.8927 4.04052C16.1172 4.2201 16.4314 4.48946 16.7457 4.75883C16.8355 4.84862 16.9253 4.89351 16.9702 4.9833C17.3742 5.34246 17.8232 5.79141 18.2721 6.28525C18.4068 6.41994 18.4966 6.55462 18.6313 6.6893C18.766 6.82399 18.8558 7.00356 18.9904 7.13825C19.1251 7.31783 19.3047 7.5423 19.4394 7.72188C19.4843 7.81167 19.5741 7.90146 19.619 8.03614C19.7985 8.30551 19.9332 8.57488 20.1128 8.84425C20.1577 8.97893 20.2475 9.11361 20.2924 9.24829C20.472 9.60745 20.6066 9.96661 20.6515 10.3707C20.6964 10.4605 20.6964 10.5502 20.6964 10.5951C20.7413 10.6849 20.7413 10.8196 20.7413 10.9543C20.7862 11.3583 20.7413 11.7175 20.6964 12.1216C20.6515 12.3011 20.6066 12.4358 20.5618 12.6154C20.5169 12.7501 20.472 12.9297 20.3822 13.1092C20.2475 13.4235 20.0679 13.7378 19.8883 14.052C19.8434 14.1418 19.7536 14.2765 19.6639 14.4112C19.5741 14.5459 19.4843 14.6357 19.4394 14.7703C19.3496 14.905 19.2149 15.0397 19.1251 15.1744C19.0353 15.3091 18.9455 15.4438 18.8109 15.5784C18.6762 15.758 18.4966 15.9376 18.3619 16.1172C18.2721 16.207 18.1823 16.3417 18.0477 16.4314C17.9579 16.5212 17.8681 16.6559 17.7334 16.7457C17.5987 16.8804 17.464 17.0151 17.3293 17.1049L17.06 17.3293C17.0151 17.3742 16.9702 17.3742 16.9253 17.3742H14.9499V19.8883H17.4191C17.9579 19.8883 18.4966 19.7087 18.9007 19.3496C19.0353 19.2149 19.6639 18.6762 20.4271 17.8681C20.472 17.8232 20.472 17.8232 20.5169 17.8232L27.3408 15.8478C27.6102 15.7131 27.7 15.8029 27.7 15.9376Z" fill="#E3E9EC"/>
</svg>
