<svg width="27" height="27" viewBox="0 0 27 27" fill="none" xmlns="http://www.w3.org/2000/svg">
<path d="M13.5 0C20.9566 0 27 6.04336 27 13.5C27 20.9566 20.9566 27 13.5 27C6.04336 27 0 20.9566 0 13.5C0 6.04336 6.04336 0 13.5 0Z" fill="#0052FF"/>
<path d="M13.5026 18.2461C10.8817 18.2461 8.75654 16.1235 8.75654 13.5C8.75654 10.8765 10.8817 8.75391 13.5026 8.75391C15.852 8.75391 17.8031 10.4678 18.1775 12.709H22.9579C22.5545 7.83633 18.4755 4.00781 13.5 4.00781C8.2582 4.00781 4.00781 8.2582 4.00781 13.5C4.00781 18.7418 8.2582 22.9922 13.5 22.9922C18.4755 22.9922 22.5545 19.1637 22.9579 14.291H18.1749C17.7979 16.5322 15.852 18.2461 13.5026 18.2461Z" fill="white"/>
</svg>
