<svg width="29" height="33" viewBox="0 0 29 33" fill="none" xmlns="http://www.w3.org/2000/svg">
<g clip-path="url(#clip0_828_28)">
<path d="M24.2289 5.73331C22.4452 4.8768 20.5325 4.24576 18.5326 3.88433C18.4962 3.87735 18.4598 3.89479 18.441 3.92965C18.195 4.38754 17.9226 4.98488 17.7317 5.45439C15.5807 5.11737 13.4407 5.11737 11.3338 5.45439C11.143 4.97443 10.8606 4.38754 10.6135 3.92965C10.5948 3.89595 10.5584 3.87852 10.522 3.88433C8.52316 4.24459 6.61041 4.87564 4.82561 5.73331C4.81017 5.74028 4.79693 5.7519 4.78811 5.76701C1.16005 11.4395 0.166171 16.9725 0.653736 22.4369C0.655942 22.4636 0.670282 22.4892 0.690138 22.5055C3.08384 24.3452 5.40253 25.462 7.6782 26.2023C7.7146 26.2139 7.75321 26.2 7.77637 26.1686C8.31468 25.3992 8.79452 24.5881 9.20597 23.735C9.23024 23.6851 9.20708 23.6258 9.15744 23.606C8.39631 23.3039 7.67158 22.9355 6.97443 22.5171C6.91927 22.4834 6.91486 22.4009 6.9656 22.3614C7.11231 22.2463 7.25902 22.1266 7.39911 22.0058C7.42449 21.9837 7.45978 21.979 7.48957 21.993C12.0696 24.1813 17.028 24.1813 21.5539 21.993C21.5837 21.9779 21.619 21.9825 21.6455 22.0046C21.7856 22.1255 21.9323 22.2463 22.0801 22.3614C22.1308 22.4009 22.1275 22.4834 22.0724 22.5171C21.3752 22.9436 20.6505 23.3039 19.8883 23.6049C19.8386 23.6246 19.8166 23.6851 19.8408 23.735C20.2611 24.5869 20.741 25.3981 21.2693 26.1674C21.2914 26.2 21.3311 26.2139 21.3675 26.2023C23.6542 25.462 25.9729 24.3452 28.3666 22.5055C28.3876 22.4892 28.4008 22.4648 28.403 22.4381C28.9865 16.1206 27.4257 10.6329 24.2653 5.76817C24.2576 5.7519 24.2444 5.74028 24.2289 5.73331ZM9.88989 19.1097C8.51103 19.1097 7.37485 17.7848 7.37485 16.1578C7.37485 14.5308 8.48897 13.2059 9.88989 13.2059C11.3018 13.2059 12.427 14.5424 12.4049 16.1578C12.4049 17.7848 11.2908 19.1097 9.88989 19.1097ZM19.1889 19.1097C17.8101 19.1097 16.6739 17.7848 16.6739 16.1578C16.6739 14.5308 17.788 13.2059 19.1889 13.2059C20.6009 13.2059 21.726 14.5424 21.704 16.1578C21.704 17.7848 20.6009 19.1097 19.1889 19.1097Z" fill="#1F7CD8"/>
</g>
<defs>
<clipPath id="clip0_828_28">
<rect width="27.9854" height="33" fill="white" transform="translate(0.538086)"/>
</clipPath>
</defs>
</svg>
