<svg width="22" height="22" viewBox="0 0 22 22" fill="none" xmlns="http://www.w3.org/2000/svg">
<path d="M0 11C0 4.92488 4.92488 0 11 0C17.0751 0 22 4.92488 22 11C22 17.0751 17.0751 22 11 22C4.92488 22 0 17.0751 0 11Z" fill="#958319"/>
<path d="M11.0172 4.39844L10.9287 4.69916V13.4253L11.0172 13.5136L15.0678 11.1194L11.0172 4.39844Z" fill="#343432"/>
<path d="M11.0174 4.39844L6.9668 11.1194L11.0174 13.5137V9.27828V4.39844Z" fill="#010100"/>
<path d="M11.0172 14.2837L10.9673 14.3445V17.453L11.0172 17.5986L15.0701 11.8906L11.0172 14.2837Z" fill="#31302D"/>
<path d="M11.0174 17.5986V14.2837L6.9668 11.8906L11.0174 17.5986Z" fill="#010100"/>
<path d="M11.0171 13.5166L15.0676 11.1224L11.0171 9.28125V13.5166Z" fill="#4D4D4B"/>
<path d="M6.9668 11.1224L11.0173 13.5166V9.28125L6.9668 11.1224Z" fill="#2E2D2D"/>
</svg>
