<svg width="24" height="24" viewBox="0 0 24 24" fill="none" xmlns="http://www.w3.org/2000/svg">
<g clip-path="url(#clip0_1067_426)">
<path d="M23.6721 11.6311C23.6721 13.2624 23.6393 14.8983 23.6814 16.5296C23.7518 19.4171 21.9377 21.6483 19.6268 22.6421C18.6986 23.0405 17.7236 23.2514 16.7158 23.2514C13.5611 23.2561 10.4018 23.2983 7.24707 23.2374C4.87051 23.1905 2.91582 22.1967 1.51426 20.2374C0.77832 19.2061 0.426758 18.0342 0.426758 16.7639C0.426758 13.403 0.426758 10.0467 0.426758 6.68581C0.426758 3.94362 1.7627 2.02643 4.13457 0.77956C5.16582 0.240497 6.28613 0.01081 7.45332 0.00612246C10.5143 0.00612246 13.5799 -0.0126276 16.6408 0.0154974C19.0174 0.0342474 21.0002 0.943623 22.4627 2.85612C23.2783 3.92487 23.6721 5.153 23.6721 6.503C23.6721 8.20925 23.6721 9.92019 23.6721 11.6311ZM2.15645 11.6311C2.15645 13.3514 2.15645 15.0671 2.15645 16.7874C2.15645 17.5561 2.33457 18.278 2.73301 18.9296C3.77832 20.6405 5.35801 21.4749 7.31738 21.5077C10.4627 21.5546 13.6127 21.5264 16.7627 21.5171C17.5361 21.5171 18.2861 21.3577 18.9846 21.0249C20.8877 20.1155 21.9518 18.6671 21.9424 16.4921C21.9236 13.1639 21.9377 9.83581 21.9377 6.50768C21.9377 5.5655 21.6705 4.703 21.1127 3.94362C20.0346 2.48581 18.5439 1.76862 16.7627 1.74987C13.6221 1.71237 10.4814 1.73581 7.34082 1.7405C6.67051 1.7405 6.02363 1.87644 5.39551 2.11081C3.67051 2.753 2.06738 4.37956 2.14238 6.77487C2.19863 8.39675 2.15645 10.0139 2.15645 11.6311Z" fill="white"/>
<path d="M12.075 16.6016C9.05157 16.6016 6.61407 14.1922 6.60938 11.1922C6.60469 8.23907 9.06094 5.82032 12.0656 5.82032C15.0797 5.81563 17.5266 8.22969 17.5313 11.2063C17.5313 14.1781 15.0891 16.5969 12.075 16.6016ZM12.075 14.8672C14.1328 14.8672 15.8016 13.2219 15.7969 11.1969C15.7922 9.19063 14.1234 7.55001 12.075 7.55001C10.0172 7.55001 8.33907 9.18594 8.33907 11.2063C8.34376 13.2313 10.0172 14.8719 12.075 14.8672Z" fill="white"/>
<path d="M18.1643 4.17969C18.7971 4.17969 19.3127 4.71875 19.3127 5.37969C19.308 6.04062 18.7877 6.575 18.1549 6.57031C17.5315 6.56562 17.0205 6.03125 17.0205 5.38437C17.0159 4.72344 17.5315 4.17969 18.1643 4.17969Z" fill="white"/>
</g>
<defs>
<clipPath id="clip0_1067_426">
<rect width="24" height="24" fill="white"/>
</clipPath>
</defs>
</svg>
