<svg width="28" height="28" viewBox="0 0 28 28" fill="none" xmlns="http://www.w3.org/2000/svg">
<mask id="mask0_472_366" style="mask-type:alpha" maskUnits="userSpaceOnUse" x="0" y="0" width="28" height="28">
<path d="M11.4994 10.4892C9.98352 14.1247 8.45421 17.7602 8.11883 18.5651L7.51515 20.0273L8.07858 19.5176C9.24569 18.4846 21.0778 6.66596 21.0107 6.6123C20.9302 6.51839 14.491 3.88904 14.3702 3.88904C14.3166 3.88904 13.0287 6.86718 11.4994 10.4892Z" fill="white"/>
<path d="M8.13197 9.4413L3.18182 14.311L3.27572 15.2366C3.46353 17.0745 4.05379 18.7111 5.07334 20.2002C5.63677 21.0319 6.17337 21.5953 6.17337 21.3539C6.17337 21.2868 7.6222 17.7586 9.4064 13.5195C12.7333 5.6046 13.1626 4.55823 13.109 4.55823C13.0955 4.57164 10.8552 6.7583 8.13197 9.4413Z" fill="white"/>
<path d="M18.1265 10.6909L14.4507 14.2861L18.1265 17.8813L21.8022 21.4766L22.379 20.8326C23.0498 20.068 24.0425 18.1362 24.3779 16.902C24.5389 16.2715 24.6059 15.5337 24.6059 14.2861C24.6059 13.0385 24.5389 12.3007 24.3779 11.6702C24.0425 10.436 23.0498 8.50422 22.379 7.73956L21.8022 7.09564L18.1265 10.6909Z" fill="white"/>
<path d="M10.3452 18.3906C8.4 20.3089 6.84386 21.9188 6.8841 21.959C7.01825 22.0932 13.7526 24.8164 13.9538 24.8164C14.1551 24.8164 20.8894 22.0932 21.0236 21.9456C21.0906 21.8785 14.1819 14.9966 13.9672 14.9295C13.927 14.9161 12.2904 16.4722 10.3452 18.3906Z" fill="white"/>
</mask>
<g mask="url(#mask0_472_366)">
<rect x="-3" y="2" width="36" height="38" fill="url(#paint0_linear_472_366)"/>
</g>
<defs>
<linearGradient id="paint0_linear_472_366" x1="23.3077" y1="-7.14815" x2="8.79964" y2="32.9275" gradientUnits="userSpaceOnUse">
<stop offset="0.11418" stop-color="#0069EC"/>
<stop offset="0.566086" stop-color="#8CFFD6"/>
<stop offset="0.9375" stop-color="#8CFFEA"/>
</linearGradient>
</defs>
</svg>
