<svg width="27" height="24" viewBox="0 0 27 24" fill="none" xmlns="http://www.w3.org/2000/svg">
<g clip-path="url(#clip0_836_85)">
<path d="M25.566 0.0761719L15.0527 7.51387L16.9642 3.14326L25.566 0.0761719Z" fill="#E17726" stroke="#E17726" stroke-width="0.25" stroke-linecap="round" stroke-linejoin="round"/>
<path d="M1.43359 0.0761719L11.7876 7.59055L9.95572 3.14326L1.43359 0.0761719Z" fill="#E27625" stroke="#E27625" stroke-width="0.25" stroke-linecap="round" stroke-linejoin="round"/>
<path d="M21.8228 17.4062L19.0352 21.4701L25.0086 23.0804L26.6812 17.4829L21.8228 17.4062Z" fill="#E27625" stroke="#E27625" stroke-width="0.25" stroke-linecap="round" stroke-linejoin="round"/>
<path d="M0.318359 17.4829L1.99093 23.0804L7.96438 21.4701L5.17677 17.4062L0.318359 17.4829Z" fill="#E27625" stroke="#E27625" stroke-width="0.25" stroke-linecap="round" stroke-linejoin="round"/>
<path d="M7.6462 10.4275L5.97363 12.8045L11.8674 13.0346L11.7081 6.90039L7.6462 10.4275Z" fill="#E27625" stroke="#E27625" stroke-width="0.25" stroke-linecap="round" stroke-linejoin="round"/>
<path d="M19.3536 10.4275L15.212 6.90039L15.0527 13.1113L20.9465 12.8812L19.3536 10.4275Z" fill="#E27625" stroke="#E27625" stroke-width="0.25" stroke-linecap="round" stroke-linejoin="round"/>
<path d="M7.96484 21.4696L11.5489 19.7827L8.44272 17.4824L7.96484 21.4696Z" fill="#E27625" stroke="#E27625" stroke-width="0.25" stroke-linecap="round" stroke-linejoin="round"/>
<path d="M15.4512 19.7827L19.0352 21.4696L18.5574 17.4824L15.4512 19.7827Z" fill="#E27625" stroke="#E27625" stroke-width="0.25" stroke-linecap="round" stroke-linejoin="round"/>
<path d="M19.0352 21.4701L15.4512 19.7832L15.7698 22.0068V22.927L19.0352 21.4701Z" fill="#D5BFB2" stroke="#D5BFB2" stroke-width="0.25" stroke-linecap="round" stroke-linejoin="round"/>
<path d="M7.96484 21.4696L11.31 23.0031V22.083L11.6286 19.8594L7.96484 21.4696Z" fill="#D5BFB2" stroke="#D5BFB2" stroke-width="0.25" stroke-linecap="round" stroke-linejoin="round"/>
<path d="M11.3102 16.0253L8.36328 15.1818L10.4341 14.2617L11.3102 16.0253Z" fill="#233447" stroke="#233447" stroke-width="0.25" stroke-linecap="round" stroke-linejoin="round"/>
<path d="M15.6104 16.0253L16.4865 14.2617L18.5573 15.1818L15.6104 16.0253Z" fill="#233447" stroke="#233447" stroke-width="0.25" stroke-linecap="round" stroke-linejoin="round"/>
<path d="M7.96437 21.4701L8.44224 17.4062L5.17676 17.4829L7.96437 21.4701Z" fill="#CC6228" stroke="#CC6228" stroke-width="0.25" stroke-linecap="round" stroke-linejoin="round"/>
<path d="M18.4775 17.4062L18.9554 21.4701L21.743 17.4829L18.4775 17.4062Z" fill="#CC6228" stroke="#CC6228" stroke-width="0.25" stroke-linecap="round" stroke-linejoin="round"/>
<path d="M21.0266 12.8809L15.1328 13.1109L15.6903 16.0246L16.5664 14.2611L18.6372 15.1812L21.0266 12.8809Z" fill="#CC6228" stroke="#CC6228" stroke-width="0.25" stroke-linecap="round" stroke-linejoin="round"/>
<path d="M8.36301 15.1812L10.4338 14.2611L11.3099 16.0246L11.8674 13.1109L5.97363 12.8809L8.36301 15.1812Z" fill="#CC6228" stroke="#CC6228" stroke-width="0.25" stroke-linecap="round" stroke-linejoin="round"/>
<path d="M5.97363 12.8809L8.44266 17.5582L8.36301 15.2579L5.97363 12.8809Z" fill="#E27525" stroke="#E27525" stroke-width="0.25" stroke-linecap="round" stroke-linejoin="round"/>
<path d="M18.6373 15.1817L18.5576 17.482L21.0266 12.8047L18.6373 15.1817Z" fill="#E27525" stroke="#E27525" stroke-width="0.25" stroke-linecap="round" stroke-linejoin="round"/>
<path d="M11.8671 13.1113L11.3096 16.0251L12.0264 19.4755L12.1857 14.9516L11.8671 13.1113Z" fill="#E27525" stroke="#E27525" stroke-width="0.25" stroke-linecap="round" stroke-linejoin="round"/>
<path d="M15.053 13.1113L14.7344 14.9516L14.8937 19.4755L15.6105 16.0251L15.053 13.1113Z" fill="#E27525" stroke="#E27525" stroke-width="0.25" stroke-linecap="round" stroke-linejoin="round"/>
<path d="M15.6104 16.0251L14.8936 19.4756L15.3714 19.7823L18.4776 17.482L18.5573 15.1816L15.6104 16.0251Z" fill="#F5841F" stroke="#F5841F" stroke-width="0.25" stroke-linecap="round" stroke-linejoin="round"/>
<path d="M8.36328 15.1816L8.44293 17.482L11.5491 19.7823L12.027 19.4756L11.3102 16.0251L8.36328 15.1816Z" fill="#F5841F" stroke="#F5841F" stroke-width="0.25" stroke-linecap="round" stroke-linejoin="round"/>
<path d="M15.6905 23.0023V22.0822L15.4516 21.8521H11.4693L11.2303 22.0822V23.0023L7.96484 21.4688L9.15953 22.3889L11.4693 23.9224H15.5312L17.9206 22.3889L19.0356 21.4688L15.6905 23.0023Z" fill="#C0AC9D" stroke="#C0AC9D" stroke-width="0.25" stroke-linecap="round" stroke-linejoin="round"/>
<path d="M15.4517 19.7833L14.9738 19.4766H12.0269L11.5491 19.7833L11.2305 22.0069L11.4694 21.7769H15.4517L15.6906 22.0069L15.4517 19.7833Z" fill="#161616" stroke="#161616" stroke-width="0.25" stroke-linecap="round" stroke-linejoin="round"/>
<path d="M25.9644 8.05061L26.8406 3.91004L25.4866 0.0761719L15.4512 7.28384L19.3538 10.4276L24.8494 11.9612L26.0441 10.581L25.4866 10.2743L26.3627 9.50748L25.7255 9.04742L26.6016 8.434L25.9644 8.05061Z" fill="#763E1A" stroke="#763E1A" stroke-width="0.25" stroke-linecap="round" stroke-linejoin="round"/>
<path d="M0.0800781 3.91004L0.956184 8.05061L0.398662 8.434L1.27477 9.04742L0.6376 9.50748L1.51371 10.2743L0.956184 10.6576L2.15087 12.0378L7.64645 10.5043L11.5491 7.36052L1.43406 0.0761719L0.0800781 3.91004Z" fill="#763E1A" stroke="#763E1A" stroke-width="0.25" stroke-linecap="round" stroke-linejoin="round"/>
<path d="M24.8497 11.9613L19.3541 10.4277L21.0266 12.8047L18.5576 17.482L21.8231 17.4054H26.6815L24.8497 11.9613Z" fill="#F5841F" stroke="#F5841F" stroke-width="0.25" stroke-linecap="round" stroke-linejoin="round"/>
<path d="M7.64579 10.4277L2.15022 11.9613L0.318359 17.4054H5.17677L8.44225 17.482L5.97323 12.8047L7.64579 10.4277Z" fill="#F5841F" stroke="#F5841F" stroke-width="0.25" stroke-linecap="round" stroke-linejoin="round"/>
<path d="M15.053 13.1126L15.3716 7.28511L16.9645 3.14453H9.87598L11.4689 7.28511L11.7875 13.1126L11.9468 14.9528V19.4768H14.8937V14.9528L15.053 13.1126Z" fill="#F5841F" stroke="#F5841F" stroke-width="0.25" stroke-linecap="round" stroke-linejoin="round"/>
</g>
<defs>
<clipPath id="clip0_836_85">
<rect width="27" height="24" fill="white"/>
</clipPath>
</defs>
</svg>
