<svg width="27" height="27" viewBox="0 0 27 27" fill="none" xmlns="http://www.w3.org/2000/svg">
<path d="M13.5 27C20.9558 27 27 20.9558 27 13.5C27 6.04416 20.9558 0 13.5 0C6.04416 0 0 6.04416 0 13.5C0 20.9558 6.04416 27 13.5 27Z" fill="url(#paint0_linear_836_79)"/>
<path d="M23.1641 13.6643H20.7843C20.7843 8.81431 16.8388 4.88281 11.9715 4.88281C7.16454 4.88281 3.25639 8.71806 3.16073 13.485C3.06178 18.4125 7.70112 22.6914 12.6468 22.6914H13.2689C17.6291 22.6914 23.4731 19.2902 24.3861 15.1462C24.5547 14.3823 23.9492 13.6643 23.1641 13.6643ZM8.43493 13.8804C8.43493 14.5289 7.90257 15.0594 7.25169 15.0594C6.6008 15.0594 6.06847 14.5287 6.06847 13.8804V11.973C6.06847 11.3244 6.6008 10.794 7.25169 10.794C7.90257 10.794 8.43493 11.3244 8.43493 11.973V13.8804ZM12.5435 13.8804C12.5435 14.5289 12.0112 15.0594 11.3604 15.0594C10.7094 15.0594 10.1771 14.5287 10.1771 13.8804V11.973C10.1771 11.3244 10.7097 10.794 11.3604 10.794C12.0112 10.794 12.5435 11.3244 12.5435 11.973V13.8804Z" fill="url(#paint1_linear_836_79)"/>
<defs>
<linearGradient id="paint0_linear_836_79" x1="13.5" y1="0" x2="13.5" y2="27" gradientUnits="userSpaceOnUse">
<stop stop-color="#534BB1"/>
<stop offset="1" stop-color="#551BF9"/>
</linearGradient>
<linearGradient id="paint1_linear_836_79" x1="13.7868" y1="4.88281" x2="13.7868" y2="22.6914" gradientUnits="userSpaceOnUse">
<stop stop-color="white"/>
<stop offset="1" stop-color="white" stop-opacity="0.82"/>
</linearGradient>
</defs>
</svg>
