<svg width="19" height="17" viewBox="0 0 19 17" fill="none" xmlns="http://www.w3.org/2000/svg">
<path d="M4.89533 0.192976C4.52036 0.326443 0.490963 2.70976 0.306653 2.90042C0.211321 3.00211 0.103277 3.19278 0.0714995 3.32624C-0.0238332 3.65673 -0.0238332 8.31532 0.0714995 8.63945C0.109633 8.77927 0.230387 8.98264 0.338431 9.09704C0.45283 9.2178 1.41251 9.81522 2.48024 10.4381C5.01608 11.8998 4.83813 11.8172 5.30208 11.7854C5.67706 11.76 5.79146 11.7028 9.49036 9.54828C11.5877 8.32803 13.399 7.31115 13.5261 7.27937C13.9138 7.19039 14.2379 7.3175 15.4582 8.02296C16.7801 8.79198 16.8119 8.8174 16.9835 9.14789C17.0979 9.37033 17.1043 9.51015 17.0852 11.0355L17.0661 12.6752L16.8691 12.9231C16.7356 13.0883 16.2844 13.3934 15.4391 13.8955C14.2316 14.6136 14.1998 14.6263 13.8248 14.6263C13.4498 14.6263 13.4054 14.6073 12.1724 13.8891C10.4882 12.9103 10.5263 12.9612 10.5009 11.6329C10.4882 11.0863 10.4564 10.6541 10.431 10.6669C10.4056 10.6796 9.99245 10.9084 9.51578 11.188L8.64508 11.6837V12.6688C8.64508 13.7048 8.70228 13.959 9.00099 14.2196C9.2425 14.4293 13.3545 16.7681 13.5706 16.819C13.9074 16.8953 14.257 16.7999 14.829 16.4694C18.2228 14.5056 18.6359 14.2514 18.8012 14.0353L18.9728 13.8128L18.9918 11.0545C19.0109 8.41065 19.0046 8.29625 18.8838 8.05474C18.8075 7.91492 18.6741 7.74968 18.5787 7.67976C18.4771 7.60985 17.4602 7.00608 16.3035 6.3324L14.2062 5.11849L13.793 5.13756C13.3926 5.16298 13.3418 5.18205 11.8546 6.05911C11.0157 6.54848 9.90347 7.19039 9.37596 7.48274C8.85481 7.76874 7.80615 8.37887 7.0562 8.83647L5.68977 9.66904H5.23853H4.78729L3.54796 8.92544C2.86792 8.51234 2.26415 8.12465 2.21331 8.06745C1.90824 7.7179 1.87646 7.56537 1.8574 6.19258C1.83198 4.65454 1.88282 4.29228 2.18153 3.95544C2.42939 3.68215 4.6856 2.34749 5.01608 2.29029C5.13684 2.26487 5.35928 2.27758 5.50546 2.31572C5.86137 2.41105 8.16842 3.82197 8.31459 4.0317C8.53068 4.34312 8.58152 4.62277 8.58152 5.51254V6.3896L9.49036 5.86209L10.3928 5.34094L10.4119 4.36855C10.4246 3.48513 10.4183 3.36438 10.2912 3.11651C10.2149 2.94491 10.0496 2.7606 9.89711 2.65256C9.38867 2.30936 5.88043 0.269243 5.65799 0.192976C5.37835 0.0912876 5.17497 0.0912876 4.89533 0.192976Z" fill="#98C624"/>
</svg>
