<svg width="18" height="18" viewBox="0 0 18 18" fill="none" xmlns="http://www.w3.org/2000/svg">
<path d="M6.96721 0.59923C3.87152 0.918516 1.2964 3.26805 0.689057 6.33252C0.00883639 9.74403 1.88291 13.1417 5.13825 14.4119C7.40103 15.2934 10.0664 14.9255 11.996 13.4644C12.1175 13.3742 12.2354 13.2978 12.2563 13.2978C12.2771 13.2978 13.2245 14.2279 14.3594 15.3663C15.7545 16.7649 16.4695 17.4555 16.5632 17.5006C17.115 17.7574 17.7327 17.1675 17.5002 16.6018C17.462 16.5115 16.8061 15.8348 15.3485 14.3737L13.2523 12.274L13.4362 12.0311C14.6648 10.4104 15.1437 8.25171 14.7203 6.25269C14.5086 5.24625 14.0471 4.23286 13.4224 3.4034C13.1413 3.02859 12.4124 2.29978 12.0376 2.01867C10.587 0.928928 8.76147 0.415293 6.96721 0.59923ZM8.65041 2.06726C9.91021 2.29284 10.9652 2.84812 11.8294 3.74004C12.6762 4.62155 13.1725 5.61412 13.3911 6.87739C13.4501 7.21403 13.4501 8.2413 13.3911 8.57794C13.1586 9.91408 12.5964 10.9899 11.6559 11.8819C10.816 12.6801 9.76445 13.2007 8.62265 13.3915C8.18883 13.4609 7.31079 13.4679 6.8978 13.4054C5.0029 13.1139 3.43423 11.979 2.57702 10.275C2.17097 9.47333 1.9905 8.68205 1.9905 7.72766C1.9905 7.11685 2.02173 6.84962 2.16402 6.2874C2.51108 4.90267 3.46547 3.60469 4.68362 2.85853C5.48183 2.36919 6.22452 2.12278 7.24485 2.00479C7.47738 1.97702 8.37277 2.01867 8.65041 2.06726Z" fill="white"/>
</svg>
