<svg width="26" height="26" viewBox="0 0 26 26" fill="none" xmlns="http://www.w3.org/2000/svg">
<path d="M11.9884 0.784067C11.3978 0.844223 10.5556 0.99188 9.98135 1.13954C5.84151 2.16219 2.43448 5.45438 1.25323 9.55594C0.881355 10.8411 0.777449 11.5958 0.782918 13.0286C0.782918 14.0075 0.804793 14.3575 0.90323 14.9153C1.37354 17.6497 2.5712 19.9411 4.50167 21.8059C5.98917 23.2442 7.75557 24.2559 9.70792 24.7919C10.9274 25.1255 11.611 25.213 12.9728 25.2184C14.2962 25.2239 14.8485 25.1583 16.0298 24.863C19.4204 24.0153 22.379 21.6255 23.9759 18.4427C24.4681 17.4638 24.9165 16.0364 25.1189 14.7786C25.2556 13.9473 25.2556 12.1263 25.1243 11.2513C24.2931 5.86454 20.1532 1.70282 14.8048 0.887974C14.2524 0.805943 12.4423 0.734848 11.9884 0.784067Z" fill="white"/>
<path d="M19.4259 7.44921C19.6993 7.71718 19.661 7.79375 18.4634 9.2375C17.8564 9.97031 17.304 10.6211 17.2274 10.6867L17.0962 10.8125H11.9009H6.70557L6.57432 10.6758C6.30089 10.4078 6.33917 10.3422 7.59151 8.83281C8.22589 8.07265 8.7837 7.4164 8.83292 7.37812C8.89854 7.3289 10.0415 7.3125 14.1048 7.3125H19.2946L19.4259 7.44921ZM17.2274 11.3703C17.304 11.4414 17.8564 12.0922 18.4634 12.825C19.661 14.2687 19.6993 14.3453 19.4259 14.6133L19.2946 14.75H14.1048C10.0415 14.75 8.89854 14.7336 8.83292 14.6789C8.7837 14.6461 8.22589 13.9898 7.59151 13.2297C6.33917 11.7203 6.30089 11.6547 6.57432 11.3867L6.70557 11.25H11.9009H17.0962L17.2274 11.3703ZM19.4259 15.3242C19.6993 15.5922 19.661 15.6687 18.4634 17.1125C17.8564 17.8453 17.304 18.4961 17.2274 18.5617L17.0962 18.6875H11.9009H6.70557L6.57432 18.5508C6.30089 18.2828 6.33917 18.2172 7.59151 16.7078C8.22589 15.9477 8.7837 15.2914 8.83292 15.2531C8.89854 15.2039 10.0415 15.1875 14.1048 15.1875H19.2946L19.4259 15.3242Z" fill="url(#paint0_linear_472_347)"/>
<defs>
<linearGradient id="paint0_linear_472_347" x1="9.90278" y1="21.5487" x2="19.0709" y2="9.65487" gradientUnits="userSpaceOnUse">
<stop stop-color="#699300"/>
<stop offset="1" stop-color="#8C3D6B"/>
</linearGradient>
</defs>
</svg>
