<svg width="23" height="23" viewBox="0 0 23 23" fill="none" xmlns="http://www.w3.org/2000/svg">
<g clip-path="url(#clip0_1067_441)">
<path fill-rule="evenodd" clip-rule="evenodd" d="M23.0004 4.18688C22.1553 4.57177 21.2454 4.83196 20.2909 4.94822C21.2655 4.35022 22.0135 3.40183 22.3659 2.27231C21.4533 2.82611 20.4448 3.22897 19.3674 3.44495C18.5089 2.50501 17.2816 1.91797 15.9235 1.91797C13.3193 1.91797 11.2066 4.08446 11.2066 6.75641C11.2066 7.13574 11.247 7.50391 11.328 7.85844C7.40654 7.65611 3.9303 5.73184 1.60137 2.80113C1.1951 3.51827 0.962766 4.35022 0.962766 5.23626C0.962766 6.91418 1.7958 8.39534 3.06205 9.26341C2.28994 9.23988 1.56077 9.01976 0.923594 8.65984V8.71932C0.923594 11.0644 2.5503 13.0205 4.71033 13.4636C4.31484 13.5772 3.8976 13.634 3.46689 13.634C3.16322 13.634 2.8662 13.6048 2.57852 13.5481C3.17921 15.4696 4.92074 16.8692 6.98625 16.9066C5.37158 18.2052 3.3359 18.9789 1.12592 18.9789C0.745164 18.9789 0.368539 18.9568 0 18.9125C2.08851 20.2829 4.56981 21.0845 7.23332 21.0845C15.9138 21.0845 20.659 13.7127 20.659 7.3183C20.659 7.10788 20.6549 6.89747 20.6468 6.69119C21.5693 6.00873 22.3698 5.15738 23.0004 4.18688Z" fill="#E3E5E9"/>
</g>
<defs>
<clipPath id="clip0_1067_441">
<rect width="23" height="23" fill="white"/>
</clipPath>
</defs>
</svg>
