<svg width="23" height="22" viewBox="0 0 23 22" fill="none" xmlns="http://www.w3.org/2000/svg">
<circle cx="11.5" cy="5.5" r="5" fill="#E6E7EB" stroke="white"/>
<path d="M21.9354 18.3354L22.2494 17.9463L21.9354 18.3354C21.9933 18.3821 22.0344 18.4357 22.0566 18.4844C22.2285 18.8601 22.3028 19.1529 22.3168 19.4202C22.3308 19.6875 22.2863 19.9616 22.1765 20.3042C22.1277 20.4566 21.9657 20.5832 21.7496 20.5832H1.08431C0.870236 20.5832 0.708843 20.458 0.659173 20.3052C0.52472 19.8918 0.485376 19.596 0.504571 19.3397C0.523697 19.0843 0.603772 18.8289 0.767133 18.4978C0.791827 18.4477 0.835717 18.394 0.896019 18.3484C5.23823 15.0642 8.49601 13.5011 11.6263 13.5C14.7505 13.4989 17.87 15.0546 21.9354 18.3354Z" fill="#E5E7EA" stroke="white"/>
</svg>
