<svg width="28" height="18" viewBox="0 0 28 18" fill="none" xmlns="http://www.w3.org/2000/svg">
<g clip-path="url(#clip0_836_80)">
<path d="M5.73581 3.51509C10.3013 -1.1743 17.7059 -1.1743 22.2714 3.51509L22.8204 4.0757C23.0516 4.31055 23.0516 4.68933 22.8204 4.92418L20.9422 6.856C20.8266 6.96964 20.646 6.96964 20.5304 6.856L19.7719 6.0757C16.5862 2.80297 11.4211 2.80297 8.23529 6.0757L7.42621 6.90903C7.31063 7.02267 7.13003 7.02267 7.01445 6.90903L5.129 4.98479C4.89783 4.74994 4.89783 4.37115 5.129 4.1363L5.73581 3.51509ZM26.1579 7.50752L27.8338 9.22721C28.065 9.46206 28.065 9.84085 27.8338 10.0757L20.2848 17.8257C20.0537 18.0605 19.6852 18.0605 19.4613 17.8257L14.1084 12.3257C14.0506 12.2651 13.9567 12.2651 13.8989 12.3257L8.54592 17.8257C8.31476 18.0605 7.94634 18.0605 7.72239 17.8257L0.173375 10.0757C-0.0577915 9.84085 -0.0577915 9.46206 0.173375 9.22721L1.84933 7.50752C2.0805 7.27267 2.44892 7.27267 2.67286 7.50752L8.0258 13.0075C8.08359 13.0681 8.1775 13.0681 8.23529 13.0075L13.5882 7.50752C13.8194 7.27267 14.1878 7.27267 14.4118 7.50752L19.7647 13.0075C19.8225 13.0681 19.9164 13.0681 19.9742 13.0075L25.3271 7.50752C25.5583 7.27267 25.9267 7.27267 26.1579 7.50752Z" fill="#3B99FC"/>
</g>
<defs>
<clipPath id="clip0_836_80">
<rect width="28" height="18" fill="white"/>
</clipPath>
</defs>
</svg>
